<svg width="37" height="39" viewBox="0 0 37 39" fill="none" xmlns="http://www.w3.org/2000/svg">
<path d="M36.75 19.2415C36.75 27.6037 31.3188 34.6737 23.8566 37.003V23.6578H27.5959H27.8162L27.8439 23.4393L28.4418 18.7257L28.4775 18.4443H28.1938H23.8566V15.6922C23.8566 15.0217 23.9512 14.5271 24.2248 14.1965C24.4893 13.8767 24.9718 13.6531 25.8965 13.6531H28.3281H28.5781V13.4031V9.1988V8.9803L28.3616 8.95105C27.9258 8.89219 26.463 8.76352 24.7648 8.76352C22.9497 8.76352 21.3958 9.32799 20.2953 10.4348C19.1947 11.5419 18.5752 13.1639 18.5752 15.2257V18.4443H14.8506H14.6006V18.6943V23.4078V23.6578H14.8506H18.5752V37.8166C18.5501 37.8168 18.5251 37.817 18.5 37.817C8.42646 37.817 0.25 29.503 0.25 19.2415C0.25 8.98 8.42646 0.666016 18.5 0.666016C28.5735 0.666016 36.75 8.98 36.75 19.2415Z" fill="white" stroke="#1A86D0" stroke-width="0.5"/>
</svg>
