<svg width="37" height="39" viewBox="0 0 37 39" fill="none" xmlns="http://www.w3.org/2000/svg">
<path d="M13.1241 29.1248H13.3741V28.8748V15.0812V14.8312H13.1241H8.61852H8.36852V15.0812V28.8748V29.1248H8.61852H13.1241ZM13.6705 10.8149H13.6706L13.6705 10.8095C13.6545 10.0749 13.3881 9.41468 12.9033 8.93747C12.4177 8.45946 11.7296 8.18155 10.9014 8.18155C10.0739 8.18155 9.3722 8.45889 8.87577 8.93526C8.37917 9.4118 8.10233 10.0741 8.10233 10.8149C8.10233 12.2784 9.19386 13.4477 10.8421 13.4477H10.8715C11.7149 13.4477 12.4172 13.1623 12.9098 12.6816C13.402 12.2013 13.6705 11.5396 13.6705 10.8149ZM29.3703 29.1248H29.6203V28.8748V20.9656C29.6203 18.8053 29.0533 17.1863 28.0737 16.1049C27.0917 15.0209 25.7225 14.5075 24.1833 14.5075C22.9374 14.5075 22.0216 14.8571 21.3373 15.339C20.9409 15.6181 20.6267 15.9384 20.3729 16.2523V15.0812V14.8312H20.1229H15.6176H15.3559L15.3678 15.0926C15.397 15.7318 15.3971 19.1708 15.3897 22.4627C15.386 24.1059 15.3805 25.7086 15.3759 26.9006C15.3736 27.4966 15.3715 27.9898 15.37 28.3341L15.3682 28.733L15.3677 28.8378L15.3676 28.8646L15.3676 28.8714L15.3676 28.8731L15.3676 28.8735C15.3676 28.8736 15.3676 28.8737 15.6176 28.8748L15.3676 28.8737L15.3664 29.1248H15.6176H20.1229H20.3729V28.8748V21.1718C20.3729 20.7605 20.4036 20.3922 20.5029 20.1467L20.5035 20.1449C20.8066 19.3788 21.4762 18.6263 22.5827 18.6263C23.3222 18.6263 23.8113 18.9071 24.1276 19.3796C24.4549 19.8684 24.6153 20.5905 24.6153 21.4956V28.8748V29.1248H24.8653H29.3703ZM0.25 19.2415C0.25 8.98 8.42646 0.666016 18.5 0.666016C28.5735 0.666016 36.75 8.98 36.75 19.2415C36.75 29.503 28.5735 37.817 18.5 37.817C8.42646 37.817 0.25 29.503 0.25 19.2415Z" fill="white" stroke="#1A86D0" stroke-width="0.5"/>
</svg>
