<svg width="37" height="39" viewBox="0 0 37 39" fill="none" xmlns="http://www.w3.org/2000/svg">
<path d="M18.2554 15.8659C14.9317 15.6049 11.9923 13.9478 10.0041 11.4652L9.77421 11.1782L9.59184 11.4975C9.20621 12.1727 8.98391 12.957 8.98391 13.7934C8.98391 15.0526 9.4845 16.1955 10.2962 17.023C9.95214 16.9359 9.62571 16.8032 9.32342 16.6322L8.96334 16.4285L8.95044 16.842C8.94975 16.8641 8.94975 16.8849 8.94975 16.9034V16.905C8.94975 18.7311 10.0053 20.3115 11.534 21.0425C11.5182 21.0427 11.5024 21.0428 11.4866 21.0428C11.2305 21.0428 10.9804 21.0169 10.7365 20.9693L10.3237 20.8887L10.4501 21.2897C10.9555 22.8942 12.3105 24.1157 13.9806 24.4025C12.6635 25.2956 11.0823 25.8155 9.38155 25.8155C9.04877 25.8155 8.72056 25.7962 8.39853 25.7575L8.23212 26.2151C10.1501 27.4662 12.4288 28.1967 14.8774 28.1967C14.8775 28.1967 14.8776 28.1967 14.8777 28.1967C22.8587 28.1963 27.209 21.4654 27.209 15.6525C27.209 15.5065 27.2067 15.3609 27.2018 15.2157C28.0101 14.602 28.714 13.8475 29.274 12.9935L29.7457 12.2741L28.9619 12.6286C28.5198 12.8286 28.0575 12.9895 27.5785 13.1082C28.103 12.5914 28.5042 11.9462 28.7323 11.222L28.9309 10.5914L28.3647 10.9329C27.6062 11.3903 26.7708 11.7286 25.8824 11.9225C25.0689 11.0945 23.9416 10.5804 22.6979 10.5804C20.2108 10.5804 18.2012 12.6317 18.2012 15.151C18.2012 15.3939 18.2194 15.6326 18.2554 15.8659ZM0.25 19.2415C0.25 8.98 8.42646 0.666016 18.5 0.666016C28.5735 0.666016 36.75 8.98 36.75 19.2415C36.75 29.503 28.5735 37.817 18.5 37.817C8.42646 37.817 0.25 29.503 0.25 19.2415Z" fill="white" stroke="#1A86D0" stroke-width="0.5"/>
</svg>
